<svg xmlns="http://www.w3.org/2000/svg" width="448" height="717.897" viewBox="0 0 448 717.897">
  <g id="Group_156" data-name="Group 156" transform="translate(9)">
    <g id="Group_154" data-name="Group 154" transform="translate(-9.062)">
      <path id="Union_1" data-name="Union 1" d="M8.4,707.946l-8.4-7V0H224V521.392s-58.085-33.349-74.667-40.416c-16.489-7.6-33.118,21.665-49.7,70.99C83.144,601.295,66.282,672.949,49.7,700.945,42.156,713.754,34.6,717.9,27.836,717.9,19.812,717.9,12.889,712.068,8.4,707.946Z" transform="translate(0.062)" fill="rgba(252,252,252,0.3)"/>
      <path id="Union_2" data-name="Union 2" d="M215.6,637.816c-8.089-7.755-24.718-20.816-41.3-28.571-16.489-7.21-33.351-7.142-49.934-7.142-16.489,0-33.117-.681-49.7-22.449C58.178,557.884,0,521.49,0,521.49V0H224V644.959Z" transform="translate(224.062)" fill="rgba(252,252,252,0.3)"/>
    </g>
  </g>
</svg>
