<svg xmlns="http://www.w3.org/2000/svg" width="1920" height="717.998" viewBox="0 0 1920 717.998">
  <path id="Union_3" data-name="Union 3" d="M-11337.7,718c-34.395,0-64.06-5.828-83.3-9.952l-36-7V0h960V521.467s-248.935-33.354-320-40.421c-70.667-7.6-141.933,21.668-213,71-70.667,49.335-142.933,121-214,149-32.318,12.8-64.673,16.953-93.671,16.953ZM-9573,637.046c-34.668-7.6-105.933-20.4-177-28-70.667-7.068-142.935-7-214-7-70.667,0-141.932-.664-213-22-70.667-21.332-320-57-320-57V0h960V644.045Z" transform="translate(11457)" fill="rgba(252,252,252,0.3)"/>
</svg>
