<?xml version="1.0" standalone="no"?><svg xmlns="http://www.w3.org/2000/svg" viewBox="0 0 1440 320"><path fill="#273036" fill-opacity="1" d="M0,32L26.7,26.7C53.3,21,107,11,160,32C213.3,53,267,107,320,144C373.3,181,427,203,480,197.3C533.3,192,587,160,640,165.3C693.3,171,747,213,800,218.7C853.3,224,907,192,960,176C1013.3,160,1067,160,1120,160C1173.3,160,1227,160,1280,154.7C1333.3,149,1387,139,1413,133.3L1440,128L1440,320L1413.3,320C1386.7,320,1333,320,1280,320C1226.7,320,1173,320,1120,320C1066.7,320,1013,320,960,320C906.7,320,853,320,800,320C746.7,320,693,320,640,320C586.7,320,533,320,480,320C426.7,320,373,320,320,320C266.7,320,213,320,160,320C106.7,320,53,320,27,320L0,320Z"></path></svg>